<svg xmlns="http://www.w3.org/2000/svg" viewBox="0 0 200 200" fill="none">
  <!-- Shield shape -->
  <path d="M100 10 L180 45 L180 110 C180 155 140 185 100 195 C60 185 20 155 20 110 L20 45 Z" fill="#18181b"/>
  <!-- Shield border -->
  <path d="M100 18 L172 50 L172 110 C172 151 135 179 100 189 C65 179 28 151 28 110 L28 50 Z" fill="none" stroke="#c8a200" stroke-width="3"/>
  <!-- C letterform -->
  <path d="M68 72 C68 72 55 80 55 100 C55 120 68 128 68 128 M68 72 C68 72 78 68 90 68 M68 128 C68 128 78 132 90 132" stroke="#c8a200" stroke-width="9" stroke-linecap="round" fill="none"/>
  <!-- E letterform -->
  <line x1="100" y1="68" x2="100" y2="132" stroke="#c8a200" stroke-width="9" stroke-linecap="round"/>
  <line x1="100" y1="68" x2="140" y2="68" stroke="#c8a200" stroke-width="9" stroke-linecap="round"/>
  <line x1="100" y1="100" x2="132" y2="100" stroke="#c8a200" stroke-width="9" stroke-linecap="round"/>
  <line x1="100" y1="132" x2="140" y2="132" stroke="#c8a200" stroke-width="9" stroke-linecap="round"/>
</svg>
